<svg xmlns="http://www.w3.org/2000/svg" width="151.884" height="34.549" viewBox="0 0 151.884 34.549">
    <defs>
        <style>
            .cls-1{opacity:.6}
        </style>
    </defs>
    <g id="Layer_2" class="cls-1" data-name="Layer 2">
        <g id="Layer_1-2" data-name="Layer 1-2">
            <g id="_Group_" data-name="Group">
                <path id="_Path_" d="M11.434 16.463L25.79 2.139a17.277 17.277 0 0 0-22.1 6.579z" data-name="Path" transform="translate(-1.111 -.482)"/>
                <path id="_Path_2" d="M23.41 11.429l14.348 14.356A17.294 17.294 0 0 0 31.171 3.66z" data-name="Path 2" transform="translate(-4.873 -1.088)"/>
                <path id="_Path_3" d="M27 23.41L12.68 37.734a17.253 17.253 0 0 0 22.109-6.563z" data-name="Path 3" transform="translate(-2.826 -4.856)"/>
                <path id="_Path_4" d="M16.467 27.009l-14.3-14.3A17.277 17.277 0 0 0 8.69 34.794z" data-name="Path 4" transform="translate(-.504 -2.815)"/>
            </g>
            <path id="Caminho_78411" d="M54.69 27.786V12.84h5.43a8.092 8.092 0 0 1 3.237.6 6.523 6.523 0 0 1 3.69 3.973 9.226 9.226 0 0 1 .461 2.889 8.254 8.254 0 0 1-.518 3.091 6.66 6.66 0 0 1-1.529 2.371 6.887 6.887 0 0 1-2.314 1.505 8.61 8.61 0 0 1-3.043.542zm9.881-7.486a7.113 7.113 0 0 0-.291-1.975 4.418 4.418 0 0 0-.858-1.562 3.965 3.965 0 0 0-1.4-1.012 4.766 4.766 0 0 0-1.9-.356H57.6v9.84h2.52a4.791 4.791 0 0 0 1.9-.388 3.731 3.731 0 0 0 1.38-1.034 4.548 4.548 0 0 0 .858-1.562 6.191 6.191 0 0 0 .316-1.95z" data-name="Caminho 78411" transform="translate(-10.84 -2.839)"/>
            <path id="Caminho_78412" d="M84.619 25.238v2.549H73.29V12.84h11.329v2.56h-8.391v3.585h8.392v2.371h-8.392v3.892z" data-name="Caminho 78412" transform="translate(-14.388 -2.839)"/>
            <path id="Caminho_78413" d="M122.923 27.787V14.839l-5.723 8.813-5.713-8.78v12.947h-1.067V12.84h1.068l5.713 8.9 5.721-8.861h1.068v14.908z" data-name="Caminho 78413" transform="translate(-21.471 -2.839)"/>
            <path id="Caminho_78414" d="M142.005 26.824v.963H131.55V12.84h10.269v.939h-9.2v5.875h9.387v.939h-9.387V26.8z" data-name="Caminho 78414" transform="translate(-25.502 -2.839)"/>
            <path id="Caminho_78415" d="M148 27.786V12.84h5.511a7.445 7.445 0 0 1 3.091.6 5.916 5.916 0 0 1 2.209 1.618 7.129 7.129 0 0 1 1.327 2.355 9.08 9.08 0 0 1 .445 2.889 9.226 9.226 0 0 1-.494 3.091 6.336 6.336 0 0 1-3.666 3.876 8.092 8.092 0 0 1-2.938.542zm11.54-7.486a8.781 8.781 0 0 0-.388-2.6 5.729 5.729 0 0 0-1.173-2.055 5.478 5.478 0 0 0-1.886-1.351 6.652 6.652 0 0 0-2.573-.494h-4.443v13h4.443a6.425 6.425 0 0 0 2.6-.494 4.961 4.961 0 0 0 1.869-1.376 5.778 5.778 0 0 0 1.149-2.08 7.89 7.89 0 0 0 .4-2.549z" data-name="Caminho 78415" transform="translate(-28.639 -2.839)"/>
            <path id="Caminho_78416" d="M167 27.787V12.84h1.068v14.947z" data-name="Caminho 78416" transform="translate(-32.264 -2.839)"/>
            <path id="Caminho_78417" d="M177.461 12.84h.963l6.476 14.947h-1.125l-1.564-3.587-8.521.049-1.562 3.561h-1.2zm4.362 10.318l-3.868-9.015-3.949 9.047z" data-name="Caminho 78417" transform="translate(-33.014 -2.839)"/>
            <path id="Caminho_78418" d="M101.21 12.84l-4.6 11.572v-.032l-.032.032-4.569-11.572H89.12l5.827 14.947h3.326L104.1 12.84z" data-name="Caminho 78418" transform="translate(-17.408 -2.839)"/>
        </g>
    </g>
</svg>
